External Loads File
version=1
nRows=69
nColumns=13
Range=5.000000e-03-10 seconds
endheader
time 	forceRightX 	forceRightY 	forceRightZ 	pointRightX 	pointRightY 	pointRightZ 	forceLeftX 	forceLeftY 	forceLeftZ 	pointLeftX 	pointLeftY 	pointLeftZ 		
5.005000 -41.476140 896.925748 -0.000000 0.438890 0.292692 -0.108365 12.491000 -110.909366 -0.000000 0.141850 0.302540 -0.355883
5.010000 -37.567875 924.043399 -0.000000 0.437773 0.281518 -0.107341 17.990834 -104.009375 -0.000000 0.143654 0.313244 -0.355885
5.015000 -31.243935 951.064765 -0.000000 0.435731 0.270595 -0.108285 20.435168 -99.017675 -0.000000 0.146203 0.323876 -0.355785
5.020000 -21.788756 978.007602 -0.000000 0.433248 0.259702 -0.108269 19.917893 -95.468923 -0.000000 0.149256 0.334443 -0.355563
5.025000 -8.116115 1004.850268 -0.000000 0.430134 0.249045 -0.108177 16.705795 -92.901995 -0.000000 0.152950 0.345389 -0.355260
5.030000 5.865993 1031.468553 -0.000000 0.426470 0.238689 -0.108110 11.648212 -90.797335 -0.000000 0.157277 0.355564 -0.355280
5.035000 22.478550 1057.693880 -0.000000 0.422180 0.228560 -0.108022 5.014880 -88.827259 -0.000000 0.162055 0.365622 -0.354835
5.040000 41.864417 1083.100429 -0.000000 0.417278 0.218730 -0.107895 -2.761899 -86.701707 -0.000000 0.167545 0.375491 -0.354778
5.045000 62.698258 1107.111880 -0.000000 0.411816 0.209272 -0.107877 -11.170416 -84.235330 -0.000000 0.173379 0.385013 -0.354455
5.050000 85.058601 1128.943946 -0.000000 0.405845 0.200358 -0.107913 -19.858053 -81.363022 -0.000000 0.179811 0.394205 -0.354399
5.055000 110.121612 1147.556311 -0.000000 0.399287 0.191670 -0.107993 -28.610351 -78.096500 -0.000000 0.186808 0.403107 -0.354246
5.060000 135.016740 1162.172353 -0.000000 0.392332 0.183605 -0.107953 -37.007833 -74.642420 -0.000000 0.194186 0.411467 -0.354145
5.065000 159.945606 1171.742107 -0.000000 0.384963 0.176096 -0.108003 -44.943069 -71.229338 -0.000000 0.202019 0.419247 -0.354023
5.070000 184.516873 1175.241533 -0.000000 0.377179 0.169057 -0.108080 -52.365467 -68.106771 -0.000000 0.210014 0.426684 -0.353502
5.075000 212.214573 1170.964280 -0.000000 0.368961 0.162472 -0.108178 -59.542219 -65.264117 -0.000000 0.219372 0.433673 -0.355237
5.080000 248.156719 1156.447096 -0.000000 0.360442 0.156516 -0.107749 -66.886881 -62.342447 -0.000000 0.231903 0.440058 -0.363703
5.085000 257.133114 1138.122672 -0.000000 0.351833 0.151085 -0.107651 -72.679216 -61.231800 -0.000000 0.237542 0.445982 -0.354930
5.090000 273.185850 1108.017199 -0.000000 0.343089 0.146390 -0.107596 -78.890153 -59.703271 -0.000000 0.246388 0.451279 -0.353632
5.095000 287.569088 1067.120643 -0.000000 0.334231 0.142102 -0.107421 -85.091078 -57.826322 -0.000000 0.255886 0.455927 -0.353253
5.100000 298.276599 1015.374007 -0.000000 0.325244 0.138627 -0.107263 -91.140716 -55.269849 -0.000000 0.265602 0.459951 -0.353454
5.105000 304.432650 952.832918 -0.000000 0.316245 0.135604 -0.107077 -96.886212 -51.649847 -0.000000 0.275382 0.463362 -0.353524
5.110000 305.938430 879.755469 -0.000000 0.307228 0.133331 -0.106810 -102.146898 -46.534201 -0.000000 0.285326 0.466087 -0.353327
5.115000 302.126126 797.065620 -0.000000 0.298230 0.131636 -0.106610 -106.627015 -39.549265 -0.000000 0.295260 0.467992 -0.353518
5.120000 293.081678 705.946688 -0.000000 0.289251 0.130635 -0.106354 -109.962209 -30.222271 -0.000000 0.305215 0.469098 -0.354144
5.125000 278.609007 608.240136 -0.000000 0.280417 0.130626 -0.106139 -111.656543 -18.141969 -0.000000 0.315104 0.469456 -0.354717
5.130000 258.837116 506.233567 -0.000000 0.271608 0.130752 -0.106004 -111.169433 -2.972434 -0.000000 0.324646 0.469290 -0.355157
5.135000 235.112767 402.074688 -0.000000 0.262822 0.131961 -0.105793 -108.024269 15.724987 -0.000000 0.333970 0.468479 -0.355804
5.140000 208.350576 298.344708 -0.000000 0.253963 0.133822 -0.105567 -101.893997 38.187912 -0.000000 0.342926 0.467212 -0.356417
5.145000 179.640806 197.567565 -0.000000 0.245228 0.136334 -0.105375 -92.789612 64.543843 -0.000000 0.351431 0.465471 -0.357011
5.150000 150.477234 101.611756 -0.000000 0.236408 0.139525 -0.105095 -80.933777 95.035491 -0.000000 0.359624 0.462947 -0.357978
5.155000 121.549079 12.525605 -0.000000 0.227672 0.143423 -0.104840 -67.021020 129.543323 -0.000000 0.367268 0.460091 -0.358252
5.160000 93.537445 -68.247118 -0.000000 0.219025 0.147919 -0.104631 -51.841723 167.983233 -0.000000 0.374370 0.456368 -0.358548
5.165000 66.683163 -139.245035 -0.000000 0.210520 0.153100 -0.104209 -36.452780 210.026907 -0.000000 0.381024 0.452241 -0.358995
5.170000 41.170357 -199.083447 -0.000000 0.202423 0.158653 -0.103931 -22.074767 255.121724 -0.000000 0.387241 0.447410 -0.360143
5.175000 17.235985 -246.692905 -0.000000 0.195093 0.164326 -0.103702 -9.766309 302.443229 -0.000000 0.393252 0.441586 -0.360761
5.180000 -4.483165 -281.601690 -0.000000 0.188247 0.170417 -0.103694 -0.594461 350.899811 -0.000000 0.398852 0.435665 -0.360604
5.185000 -23.560810 -304.168185 -0.000000 0.181842 0.176788 -0.103697 5.143114 399.322001 -0.000000 0.404028 0.429048 -0.360649
5.190000 -39.536374 -315.441713 -0.000000 0.175888 0.183564 -0.103531 7.504201 446.704067 -0.000000 0.408868 0.421642 -0.361059
5.195000 -52.191741 -316.919141 -0.000000 0.170254 0.190891 -0.103435 7.143845 492.456230 -0.000000 0.413492 0.413405 -0.361319
5.200000 -61.232812 -310.386824 -0.000000 0.164280 0.198638 -0.104087 4.731021 536.408529 -0.000000 0.418040 0.404887 -0.361084
5.205000 -65.841891 -297.914762 -0.000000 0.159453 0.207023 -0.104064 -0.292283 578.572021 -0.000000 0.422154 0.395898 -0.360753
5.210000 -66.916885 -281.228016 -0.000000 0.155157 0.215839 -0.104094 -5.981359 618.902302 -0.000000 0.425941 0.386240 -0.360585
5.215000 -64.681737 -262.021292 -0.000000 0.151457 0.224891 -0.104176 -12.145869 657.277799 -0.000000 0.429246 0.376236 -0.360582
5.220000 -60.045310 -241.592270 -0.000000 0.148293 0.234325 -0.104316 -17.662160 693.578937 -0.000000 0.432162 0.366024 -0.360416
5.225000 -53.559612 -221.094474 -0.000000 0.145787 0.243747 -0.104537 -22.693416 727.797240 -0.000000 0.434655 0.355554 -0.360266
5.230000 -46.398465 -201.360093 -0.000000 0.143917 0.253708 -0.104663 -25.632769 760.195227 -0.000000 0.436741 0.344837 -0.360169
5.235000 -38.969415 -183.236351 -0.000000 0.142547 0.263760 -0.104723 -27.341144 791.153677 -0.000000 0.438369 0.333968 -0.360006
5.240000 -32.224831 -167.158970 -0.000000 0.141899 0.274283 -0.104820 -26.465809 821.194258 -0.000000 0.439507 0.322797 -0.359852
5.245000 -26.336977 -153.336119 -0.000000 0.141927 0.284604 -0.104891 -24.667794 850.685297 -0.000000 0.440127 0.311358 -0.360225
5.250000 -21.811884 -141.561170 -0.000000 0.142545 0.295271 -0.105097 -21.366025 880.020195 -0.000000 0.440241 0.299981 -0.360366
5.255000 -18.599932 -131.543715 -0.000000 0.143746 0.305755 -0.105391 -18.138214 909.566112 -0.000000 0.439594 0.288662 -0.360528
5.260000 -16.852921 -122.948748 -0.000000 0.145522 0.316236 -0.105730 -14.747167 939.779114 -0.000000 0.438639 0.277488 -0.360097
5.265000 -16.644255 -115.545542 -0.000000 0.148067 0.326716 -0.106033 -10.966650 971.074985 -0.000000 0.436993 0.266493 -0.359594
5.270000 -18.014509 -109.216147 -0.000000 0.151124 0.337065 -0.106285 -6.567778 1003.782816 -0.000000 0.434644 0.255551 -0.359316
5.275000 -20.957755 -103.933014 -0.000000 0.154835 0.347315 -0.106619 -1.607121 1038.115813 -0.000000 0.431590 0.244886 -0.359159
5.280000 -25.614259 -99.680623 -0.000000 0.159150 0.357558 -0.106930 5.462228 1074.110681 -0.000000 0.427845 0.234298 -0.359072
5.285000 -31.848043 -96.470423 -0.000000 0.164156 0.367569 -0.107267 13.598669 1111.545964 -0.000000 0.423691 0.224023 -0.358883
5.290000 -39.677064 -94.156064 -0.000000 0.169733 0.377288 -0.107844 23.936369 1149.858562 -0.000000 0.418816 0.214024 -0.358687
5.295000 -48.947343 -92.470444 -0.000000 0.175859 0.386857 -0.108207 37.127710 1188.058148 -0.000000 0.413360 0.204477 -0.358375
5.300000 -59.254923 -91.129649 -0.000000 0.182453 0.395873 -0.108697 52.588601 1224.746464 -0.000000 0.407501 0.195269 -0.358269
5.305000 -70.210238 -89.784330 -0.000000 0.189618 0.404501 -0.108925 71.546874 1258.065658 -0.000000 0.401099 0.186632 -0.358008
5.310000 -81.370991 -88.152643 -0.000000 0.197263 0.412778 -0.109301 95.167698 1285.842188 -0.000000 0.394183 0.178281 -0.357591
5.315000 -92.140255 -86.256589 -0.000000 0.205283 0.420584 -0.109876 121.517904 1306.052883 -0.000000 0.386979 0.170400 -0.357591
5.320000 -102.191183 -84.044000 -0.000000 0.213660 0.428038 -0.110392 150.877332 1316.691977 -0.000000 0.379277 0.163092 -0.357313
5.325000 -111.181924 -81.583349 -0.000000 0.222349 0.434928 -0.110844 181.313343 1316.272003 -0.000000 0.371208 0.156445 -0.357264
5.330000 -118.949295 -78.799951 -0.000000 0.231323 0.441271 -0.111202 211.696796 1303.679515 -0.000000 0.362923 0.150272 -0.357291
5.335000 -125.502854 -75.367785 -0.000000 0.240841 0.447207 -0.111151 242.266382 1278.003600 -0.000000 0.354406 0.144430 -0.357538
5.340000 -130.544720 -71.485916 -0.000000 0.249843 0.452461 -0.112229 266.979038 1239.942998 -0.000000 0.345691 0.139146 -0.357688
5.345000 -134.325502 -66.454925 -0.000000 0.259435 0.457277 -0.112394 288.573139 1188.902306 -0.000000 0.336886 0.134645 -0.357637
